<svg width="175" height="125" viewBox="0 0 175 125" fill="none" xmlns="http://www.w3.org/2000/svg">
<path opacity="0.1" d="M107.54 15.9081C100.048 21.2022 90.3301 20.8601 81.8131 18.1051C73.2971 15.3501 65.4731 10.4455 57.1761 6.9609C50.2604 4.04944 42.974 2.13216 35.5301 1.26519C24.9541 0.0451159 13.1451 1.53262 5.77707 10.0954C-2.42793 19.6249 -1.79793 36.818 7.07307 45.5715C11.5881 50.0219 17.4991 52.2057 22.6541 55.6802C27.8091 59.1538 32.5841 64.9201 32.1461 71.623C31.7391 77.8354 27.0131 82.5956 22.1231 85.5857C18.3431 87.8967 13.6891 90.4196 13.2331 95.2031C12.7931 99.8341 16.7071 103.462 20.4441 105.525C32.6371 112.257 47.6601 112.191 59.8101 105.361C64.1421 102.917 68.1211 99.6737 72.6651 97.7805C84.5961 92.7912 97.7451 97.8148 110.379 99.6504C121.114 101.203 132.055 100.399 142.455 97.2951C148.711 95.4291 154.992 92.5782 159.387 87.267C162.557 83.4362 164.532 78.5902 166.385 73.8028C168.364 68.692 170.265 63.5507 172.086 58.3808C173.18 55.2745 174.256 52.1058 174.54 48.7806C175.052 42.7559 172.894 36.8018 169.956 31.7157C162.978 19.636 151.227 11.1469 138.5 8.99033C125.774 6.83375 112.31 11.046 102.44 20.2617" fill="#00D09C"/>
<path opacity="0.1" d="M87.5852 17.7983L86.9682 53.9283C86.9682 53.9283 109.311 53.9283 128.322 60.1569L128.692 23.6575C128.692 23.6575 98.2022 16.3017 87.5852 17.7983ZM76.3682 18.8327L76.9862 54.9627C76.9862 54.9627 54.6432 54.9627 35.6342 61.1913L35.2632 24.6919C35.2632 24.6919 65.7532 17.3452 76.3682 18.8327Z" fill="black"/>
<path opacity="0.2" d="M66.819 22.2306L67.151 41.6045C67.151 41.6045 55.1629 41.6045 44.9729 44.9448L44.7729 25.3711C44.7729 25.3711 61.126 21.4323 66.819 22.2306Z" fill="#00D09C"/>
<path opacity="0.1" d="M141.86 31.088V66.8406C141.86 66.8406 149.15 65.9666 164.451 85.0277L165.809 49.2751C165.809 49.2751 149.884 31.9589 141.86 31.088ZM24.03 31.2514V67.004C24.03 67.004 16.746 66.1301 1.44801 85.1912L0.0830078 49.4386C0.0830078 49.4386 16.006 32.1223 24.029 31.2514H24.03Z" fill="black"/>
<path opacity="0.2" d="M93.0691 24.6596L108.205 27.3914V29.6166L93.0691 26.683V24.6596Z" fill="#00D09C"/>
<path d="M63.9091 46.1578L48.7751 48.8896V51.1148L63.9091 48.1811V46.1578ZM93.2701 28.8073L120.933 34.5736V36.7978L93.2701 30.8306V28.8073ZM93.2701 32.9549L120.933 38.7192V40.9455L93.2701 34.9773V32.9549Z" fill="white"/>
<path opacity="0.2" d="M147.987 42.1423V44.1062L153.921 48.9713L154.2 47.287L147.987 42.1423Z" fill="#00D09C"/>
<path d="M147.987 61.1065V63.0703L153.921 67.9355L154.2 66.2512L147.987 61.1065ZM148.08 45.5099L147.987 47.4757L159.205 58.1396L159.021 55.8952L148.08 45.5099ZM147.987 49.16V51.03L159.205 61.8835V59.4515L147.987 49.16Z" fill="white"/>
<path opacity="0.2" d="M17.9702 42.5672L18.0632 44.533L6.84619 55.1969L7.03119 52.9525L17.9702 42.5672ZM18.0632 46.2163V48.0873L6.84619 58.9409V56.5088L18.0632 46.2163Z" fill="#00D09C"/>
<path opacity="0.1" d="M33.1471 104.239C38.2469 104.239 42.3811 103.488 42.3811 102.562C42.3811 101.636 38.2469 100.885 33.1471 100.885C28.0473 100.885 23.9131 101.636 23.9131 102.562C23.9131 103.488 28.0473 104.239 33.1471 104.239Z" fill="#4E6F8A"/>
<path d="M11.2481 93.3391C11.2481 93.3391 12.1371 94.5128 10.8361 96.2818C9.53614 98.0509 8.46314 99.5515 8.89214 100.657C8.89214 100.657 10.8541 97.3647 12.4561 97.3182C14.0581 97.2728 13.0061 95.3272 11.2481 93.3391Z" fill="#00D09C"/>
<path opacity="0.1" d="M11.2481 93.3391C11.3261 93.4521 11.3871 93.5763 11.4291 93.7075C12.9881 95.5542 13.8191 97.2799 12.3201 97.3233C10.9251 97.3626 9.2421 99.8815 8.8501 100.518C8.8631 100.566 8.8801 100.614 8.8971 100.662C8.8971 100.662 10.8591 97.3687 12.4611 97.3233C14.0631 97.2779 13.0051 95.3272 11.2481 93.3391Z" fill="black"/>
<path d="M12.902 94.8367C12.902 95.2505 12.856 95.5855 12.8 95.5855C12.743 95.5855 12.696 95.2505 12.696 94.8367C12.696 94.423 12.754 94.6178 12.811 94.6178C12.868 94.6178 12.901 94.422 12.901 94.8367H12.902Z" fill="#FFD037"/>
<path d="M13.4701 95.3272C13.1101 95.525 12.7961 95.6441 12.7691 95.5956C12.7411 95.5462 13.0121 95.3433 13.3711 95.1455C13.7311 94.9477 13.5891 95.0921 13.6161 95.1455C13.6441 95.2 13.8301 95.1314 13.4701 95.3272Z" fill="#FFD037"/>
<path d="M6.546 93.3391C6.546 93.3391 5.66 94.5097 6.956 96.2869C8.252 98.063 9.33 99.5566 8.9 100.662C8.9 100.662 6.938 97.3687 5.336 97.3233C3.734 97.2779 4.79 95.3272 6.546 93.3391Z" fill="#00D09C"/>
<path opacity="0.1" d="M6.54598 93.3391C6.46886 93.4527 6.40793 93.5767 6.36498 93.7075C4.80698 95.5542 3.97498 97.2799 5.47398 97.3233C6.86998 97.3626 8.55198 99.8815 8.94398 100.518C8.93123 100.567 8.91553 100.615 8.89698 100.662C8.89698 100.662 6.93498 97.3687 5.33298 97.3233C3.73098 97.2779 4.78998 95.3272 6.54598 93.3391Z" fill="black"/>
<path d="M4.89209 94.8367C4.89209 95.2505 4.93809 95.5855 4.99409 95.5855C5.05109 95.5855 5.09809 95.2505 5.09809 94.8367C5.09809 94.423 5.04009 94.6178 4.98309 94.6178C4.92609 94.6178 4.89209 94.422 4.89209 94.8367Z" fill="#FFD037"/>
<path d="M4.32515 95.3272C4.68515 95.525 4.99815 95.6441 5.02515 95.5956C5.05315 95.5462 4.78215 95.3433 4.42315 95.1455C4.06315 94.9477 4.20615 95.0921 4.17815 95.1455C4.15015 95.2 3.96615 95.1314 4.32515 95.3272Z" fill="#FFD037"/>
<path d="M5.17407 100.508C5.17407 100.508 7.66307 100.432 8.41407 99.8926C9.16607 99.3517 12.2411 98.7099 12.4271 99.5747C12.6131 100.44 16.1661 103.873 13.3571 103.895C10.5471 103.918 6.83007 103.454 6.08107 102.993C5.33307 102.532 5.17407 100.508 5.17407 100.508Z" fill="#A8A8A8"/>
<path opacity="0.2" d="M13.407 103.594C10.598 103.617 6.88003 103.153 6.13203 102.692C5.56203 102.342 5.33503 101.085 5.25903 100.505H5.17603C5.17603 100.505 5.33803 102.531 6.08103 102.99C6.82503 103.449 10.548 103.915 13.357 103.892C14.167 103.892 14.449 103.594 14.433 103.163C14.321 103.426 14.011 103.59 13.407 103.594Z" fill="black"/>
<path opacity="0.1" d="M97.281 80.4794C105.691 80.4794 112.509 79.301 112.509 77.8475C112.509 76.3939 105.691 75.2156 97.281 75.2156C88.8708 75.2156 82.053 76.3939 82.053 77.8475C82.053 79.301 88.8708 80.4794 97.281 80.4794Z" fill="#4E6F8A"/>
<path d="M94.21 42.3239C94.1353 42.4837 94.0806 42.6522 94.047 42.8255L94.018 42.9627C93.9122 43.557 93.8388 44.1567 93.798 44.7591C93.798 44.7591 90.284 44.5229 90.893 43.9275C91.05 43.763 91.163 43.5602 91.217 43.3392C91.2718 43.1288 91.306 42.9135 91.319 42.6963V42.5823C91.3269 42.3372 91.3155 42.0919 91.285 41.8486C91.285 41.8486 92.427 41.8486 93.289 41.9415C93.869 42.0081 94.322 42.1241 94.21 42.3239ZM88.118 59.1971C86.921 59.1578 87.804 56.6419 87.942 56.3039C88.079 55.9648 87.738 55.1363 87.738 55.1363C87.738 55.1363 87.333 52.7395 87.333 52.5831C87.312 52.2561 87.2662 51.9312 87.196 51.6113C87.1538 51.2848 87.2103 50.9531 87.358 50.6596C87.496 50.4427 87.475 49.5707 87.475 49.5707V48.4435L87.742 48.0873L88.424 48.7412L88.614 48.9208L88.948 50.1823L88.829 51.9907L88.766 53.7517L89.179 56.1878C89.179 56.1878 89.324 59.2385 88.119 59.1971H88.118Z" fill="#D38884"/>
<path opacity="0.1" d="M88.4971 49.04L87.4771 48.6121V48.4445L87.7421 48.0883L88.4261 48.7392L88.4971 49.04Z" fill="black"/>
<path d="M88.0281 46.4636C87.8967 46.7887 87.8014 47.1275 87.7441 47.4737C87.6911 47.8068 87.6021 48.1317 87.4771 48.4425L88.6111 48.9189L88.0281 46.4636Z" fill="#4C4981"/>
<path opacity="0.05" d="M88.0281 46.4636C87.8967 46.7887 87.8014 47.1275 87.7441 47.4737C87.6911 47.8068 87.6021 48.1317 87.4771 48.4425L88.6111 48.9189L88.0281 46.4636Z" fill="black"/>
<path d="M97.0602 71.4747L96.9672 71.6775C96.9672 71.6775 96.8652 72.3496 96.8652 72.3658C96.8652 72.3819 96.5702 72.83 96.5702 72.83L95.8302 72.9935L95.5152 72.9541C95.4985 72.7695 95.4705 72.5862 95.4312 72.4051C95.325 71.9297 95.1375 71.4765 94.8772 71.066C94.8772 71.066 94.3272 69.6995 94.1322 69.5219C93.9362 69.3433 93.1892 67.5399 93.2682 67.105C93.3102 66.8658 93.2762 66.0656 93.2382 65.3985C93.2052 64.8536 93.1692 64.3964 93.1692 64.3964L95.0342 63.2843L95.2512 63.6294L95.3812 63.8333C95.3812 63.8333 95.3812 63.8737 95.3732 63.9382V63.9625C95.3518 64.2405 95.2974 64.5149 95.2112 64.7799C95.2112 64.7799 95.0712 65.7911 95.2112 65.9687C95.3502 66.1473 95.7942 68.5289 95.8932 69.6309V69.7308C95.9322 70.2374 96.2432 70.6885 96.5552 71.0185C96.7113 71.1838 96.8802 71.3363 97.0602 71.4747Z" fill="#D38884"/>
<path opacity="0.1" d="M95.515 72.951L95.829 72.9904L96.569 72.8269C96.569 72.8269 96.865 72.3768 96.865 72.3627C96.865 72.3476 96.967 71.6744 96.967 71.6744L97.061 71.4716L97.072 71.4474C96.8908 71.3207 96.7206 71.1789 96.563 71.0235C96.5449 71.0076 96.5275 70.9907 96.511 70.9731C96.495 70.9549 96.617 71.627 96.053 71.9197C95.779 72.061 95.554 72.172 95.397 72.2466L95.515 72.951Z" fill="black"/>
<path d="M97.1902 71.5695L97.0852 71.7965C97.0852 71.7965 96.9832 72.4686 96.9832 72.4848C96.9832 72.5019 96.6882 72.949 96.6882 72.949L95.9482 73.1125L95.5222 73.062C95.5222 72.9752 95.5072 72.8531 95.4862 72.7038C95.4717 72.6042 95.4533 72.5052 95.4312 72.4071C95.5932 72.3334 95.8442 72.2123 96.1662 72.0438C96.7322 71.7511 96.6252 71.0972 96.6252 71.0972C96.7472 71.2203 96.8762 71.3363 97.0122 71.4433C97.0902 71.4998 97.1532 71.5442 97.1902 71.5695Z" fill="#CEDDF9"/>
<path opacity="0.1" d="M97.1901 71.5695L97.0851 71.7966C97.0851 71.7966 96.9831 72.4687 96.9831 72.4848C96.9831 72.502 96.6881 72.949 96.6881 72.949L95.9481 73.1125L95.5221 73.0621C95.5221 72.9753 95.5071 72.8532 95.4861 72.7038C95.5761 72.7088 95.6661 72.721 95.7551 72.7422C95.7551 72.7422 96.7651 72.9591 96.8151 72.1518C96.8441 71.6936 96.9381 71.514 97.0121 71.4434C97.0901 71.4999 97.1531 71.5443 97.1901 71.5695Z" fill="black"/>
<path d="M97.1161 71.516C97.1161 71.516 96.8651 71.4605 96.8141 72.2658C96.7641 73.0721 95.7551 72.8562 95.7551 72.8562C95.7551 72.8562 95.2591 72.7321 95.2551 72.9399C95.2711 73.1317 95.3151 73.3204 95.3871 73.499C95.3871 73.499 95.4171 73.9794 95.5101 74.0944C95.6041 74.2085 95.5441 74.6333 95.5441 74.6333C95.5441 74.6333 95.5841 74.9502 96.3641 74.6333C96.3641 74.6333 97.0611 74.488 97.6391 73.6141C97.6591 73.5838 97.5711 73.494 98.0761 73.3113C98.5821 73.1276 100.02 71.954 99.9161 71.3798C99.9049 71.2849 99.8665 71.1954 99.8055 71.1222C99.7446 71.0491 99.6638 70.9955 99.5731 70.968C99.4974 70.9477 99.4185 70.9428 99.3409 70.9535C99.2633 70.9643 99.1886 70.9905 99.1211 71.0306C98.9845 71.1051 98.8432 71.1705 98.6981 71.2264C98.5058 71.3049 98.3029 71.3539 98.0961 71.3717C97.9375 71.3857 97.7806 71.4161 97.6281 71.4625C97.4653 71.5265 97.2885 71.5449 97.1161 71.516Z" fill="#CC8294"/>
<path d="M91.3941 65.9666C91.2826 66.0598 91.1864 66.1702 91.1091 66.2936C90.8241 66.7336 90.6521 67.3482 90.4611 67.6136C90.2111 67.9567 90.1371 68.6238 90.1371 68.6238C90.0701 69.0617 89.1501 71.403 88.9011 71.8178C88.6511 72.2335 88.3051 73.3628 88.3051 73.3628C88.0921 73.6312 88.1051 74.0298 88.1261 74.2206C88.1261 74.2529 88.1261 74.2791 88.1361 74.2963C88.1461 74.3144 88.1361 74.3275 88.1361 74.3275V74.3386L87.7961 74.9229L86.7141 74.7716L86.1541 74.3881C86.2011 74.3134 86.2411 74.2347 86.2761 74.154C86.5761 73.4809 86.7881 72.2769 86.7881 72.2769C86.7881 72.2769 87.0901 70.9045 87.0671 70.5836C87.0741 70.1466 87.1041 69.7106 87.1561 69.2757C87.1561 69.2757 88.0081 66.6519 88.2801 66.228C88.3941 66.0595 88.4641 65.8647 88.4841 65.6629C88.4893 65.6223 88.4893 65.5813 88.4841 65.5408L88.8511 65.1724C88.8511 65.1724 91.8641 65.5892 91.3941 65.9666Z" fill="#D38884"/>
<path opacity="0.1" d="M88.147 74.2135V74.3427L87.807 74.926L86.725 74.7746L86.166 74.3911C86.212 74.3164 86.253 74.2387 86.288 74.158C86.56 74.0793 87.182 74.3013 87.182 74.3013C87.182 74.3013 87.854 74.4305 88.138 74.2226C88.138 74.2226 88.141 74.2165 88.148 74.2125L88.147 74.2135Z" fill="black"/>
<path d="M87.8831 75.7717L86.7851 76.0361L85.7771 75.2842L85.8291 74.8604C85.9125 74.809 85.9847 74.7411 86.0415 74.6608C86.0982 74.5805 86.1382 74.4895 86.1591 74.3931C86.2181 74.0803 87.1751 74.4234 87.1751 74.4234C87.1751 74.4234 87.8751 74.5566 88.1471 74.3326C88.1281 74.5374 88.1461 74.7453 88.1991 74.9441C88.2251 75.041 88.2821 75.1265 88.3611 75.1873C88.6411 75.3821 87.8831 75.7717 87.8831 75.7717Z" fill="#CEDDF9"/>
<path opacity="0.1" d="M87.8831 75.7717L86.7851 76.0361L85.7771 75.2842L85.8291 74.8604C85.8996 74.8169 85.9621 74.7616 86.0141 74.6969H86.2341C86.3961 74.713 86.8011 75.4407 86.8011 75.4407C87.7961 75.5083 88.0971 75.1793 88.1991 74.9371C88.2249 75.0343 88.2819 75.1202 88.3611 75.1813C88.6411 75.3831 87.8831 75.7717 87.8831 75.7717Z" fill="black"/>
<path d="M86.8012 75.5638C86.8012 75.5638 86.4032 74.8362 86.2342 74.821C86.092 74.813 85.9494 74.813 85.8072 74.821C85.8072 74.821 85.3662 75.8756 85.2042 75.9654C85.0422 76.0563 84.8052 76.5608 84.8052 76.5608C84.8052 76.5608 85.9722 77.7052 87.0992 77.4812C87.4592 77.4862 87.8132 77.575 88.1332 77.7416C88.6542 78.016 90.8332 77.8082 91.0992 77.3258C91.2972 76.9625 91.3762 76.7001 91.2012 76.5084C91.1489 76.4536 91.0845 76.4121 91.0131 76.3876C90.9418 76.363 90.8657 76.356 90.7912 76.3671C90.5172 76.4054 89.9012 76.3994 89.3622 75.7313C89.3622 75.7313 88.3682 74.812 88.2872 74.8099C88.2062 74.8079 88.3532 75.6677 86.8012 75.5638Z" fill="#CC8294"/>
<path opacity="0.1" d="M95.3822 63.9534L95.3742 63.9635C95.3062 64.0381 94.8272 64.569 94.6812 64.6073C94.4402 64.6989 94.2045 64.8041 93.9752 64.9222C93.9752 64.9222 93.6802 65.3198 93.4452 65.339C93.374 65.3492 93.3041 65.3679 93.2372 65.3945C93.2052 64.8505 93.1692 64.3924 93.1692 64.3924L95.0342 63.2843L95.2512 63.6294C95.3002 63.7687 95.3552 63.8979 95.3732 63.9382L95.3822 63.9534Z" fill="black"/>
<path d="M88.604 56.3039C88.604 56.3039 87.879 57.2586 88.604 58.5251C88.994 59.2375 89.499 59.8804 90.096 60.4263L92.568 65.5963C92.568 65.5963 93.216 65.24 93.453 65.2199C93.689 65.1997 93.983 64.8051 93.983 64.8051C94.212 64.686 94.448 64.5801 94.689 64.4872C94.851 64.4478 95.39 63.8333 95.39 63.8333C95.39 63.8333 95.12 63.2399 95.18 63.0814C95.24 62.923 95.003 62.5264 95.003 62.5264C94.9294 62.3277 94.8751 62.1222 94.841 61.9128C94.841 61.7493 94.585 61.378 94.585 61.378C94.585 61.378 94.331 60.9804 94.331 60.7634C94.331 60.5464 93.951 59.6876 93.951 59.6876L93.851 55.9275L88.604 56.3039Z" fill="#CEDDF9"/>
<path opacity="0.05" d="M95.3821 63.8333C95.3821 63.8333 94.8381 64.4468 94.6811 64.4872C94.44 64.5797 94.2043 64.6858 93.9751 64.8051C93.9751 64.8051 93.6801 65.2007 93.4451 65.2199C93.2759 65.2552 93.1124 65.314 92.9591 65.3944C92.7491 65.4913 92.5591 65.5963 92.5591 65.5963L90.0851 60.4263C89.8686 60.236 89.6676 60.0285 89.4841 59.8057C89.1491 59.4071 88.8508 58.9785 88.5931 58.5251C88.3097 58.0657 88.209 57.5153 88.3111 56.9841C88.3571 56.7399 88.4531 56.5098 88.5931 56.3049L90.3531 56.1798L93.8561 55.9275L93.8861 57.0406L93.9501 59.6876C93.9501 59.6876 94.0071 59.8198 94.0781 59.9954C94.1901 60.2376 94.2721 60.4939 94.3231 60.7573C94.3231 60.9763 94.5771 61.3719 94.5771 61.3719C94.5771 61.3719 94.8331 61.7473 94.8331 61.9068C94.8681 62.1157 94.9221 62.3215 94.9951 62.5214C94.9951 62.5214 95.2321 62.9169 95.1731 63.0734C95.1151 63.2308 95.3821 63.8333 95.3821 63.8333Z" fill="black"/>
<path opacity="0.1" d="M91.394 65.9667C91.2826 66.0598 91.1864 66.1702 91.109 66.2936C90.041 66.3723 88.8 65.8032 88.478 65.6528C88.4832 65.6123 88.4832 65.5712 88.478 65.5307L88.844 65.1624C88.844 65.1624 91.864 65.5892 91.394 65.9667Z" fill="black"/>
<path d="M94.5431 57.4755C94.5431 57.4755 94.3811 58.0306 94.3281 58.2667C94.2741 58.5039 94.1511 59.6745 94.1511 59.6745L94.0831 60.0015L92.9631 65.3964L92.7171 66.5691C92.2871 66.8072 91.2071 66.1715 91.2071 66.1715C89.9501 66.3128 88.4001 65.4994 88.4001 65.4994C88.4001 65.4994 88.6541 64.6678 88.5961 64.252C88.5381 63.8373 88.9491 63.4982 88.9491 63.4982C88.8521 63.1228 89.2041 61.4779 89.2041 61.4779C89.2041 61.4779 89.2841 60.8643 89.5781 60.7058C89.8731 60.5474 89.5391 60.3103 89.4601 60.17C89.432 60.049 89.4415 59.9221 89.4871 59.8067C89.5131 59.7159 89.5431 59.625 89.5771 59.5372C88.8291 58.7824 88.7141 57.6017 88.7131 56.9457C88.7108 56.786 88.7174 56.6263 88.7331 56.4674L90.3531 56.1808L93.8931 55.5561L94.2551 56.6783L94.3451 56.9588L94.5431 57.4755Z" fill="#CEDDF9"/>
<path opacity="0.1" d="M94.2102 42.324C94.1355 42.4837 94.0808 42.6522 94.0471 42.8255L94.0182 42.9628C93.6762 43.1868 93.4662 43.1888 93.0282 43.1888C92.8782 43.1888 92.7942 42.8982 92.6512 42.8618C92.6512 42.8618 92.4372 42.0838 92.3772 42.7397C91.9662 42.6539 91.6112 42.9779 91.3192 42.6953V42.5803C91.3271 42.3352 91.3157 42.0899 91.2852 41.8466C91.2852 41.8466 92.4272 41.8466 93.2892 41.9395C93.8692 42.0081 94.3222 42.1241 94.2102 42.324Z" fill="black"/>
<path d="M95.02 40.9899C95.0196 41.3173 94.9471 41.6405 94.8077 41.9361C94.6684 42.2318 94.4657 42.4925 94.2143 42.6994C93.9629 42.9064 93.6691 43.0544 93.3542 43.1327C93.0392 43.2111 92.7109 43.2178 92.393 43.1525C91.9878 43.0685 91.6145 42.8703 91.3164 42.5808C91.0184 42.2913 90.8078 41.9225 90.7091 41.5171C90.6105 41.1116 90.6277 40.6863 90.759 40.2904C90.8902 39.8945 91.13 39.5443 91.4506 39.2804C91.7711 39.0165 92.1592 38.8498 92.5699 38.7996C92.9806 38.7494 93.3969 38.8177 93.7706 38.9967C94.1444 39.1757 94.4601 39.458 94.6813 39.8108C94.9024 40.1636 95.0199 40.5724 95.02 40.9899Z" fill="#D38884"/>
<path opacity="0.1" d="M93.822 44.4593C93.806 44.642 93.798 44.7601 93.798 44.7601C93.798 44.7601 90.284 44.5229 90.893 43.9275C91.05 43.763 91.163 43.5602 91.217 43.3392L92.742 43.5915C92.742 43.5915 93.172 43.9275 93.506 44.2454C93.601 44.3302 93.708 44.4028 93.822 44.4593ZM94.347 57.0719C94.193 57.092 94.035 57.0809 93.885 57.0375C93.8201 57.0165 93.7578 56.9884 93.699 56.9538C93.404 56.7762 92.424 56.9941 92.424 56.9941C92.424 56.9941 89.754 57.1728 89.636 56.9941C89.57 56.8922 89.098 56.9063 88.713 56.9376C88.551 56.9508 88.413 56.9679 88.314 56.978C88.36 56.7338 88.456 56.5027 88.596 56.2988L90.356 56.1727L93.896 55.548L94.256 56.6702C94.28 56.8054 94.31 56.9397 94.347 57.0719Z" fill="black"/>
<path d="M92.7371 43.7106L90.8221 43.3937C90.7883 43.4697 90.7385 43.5375 90.6762 43.5922C90.6138 43.6469 90.5404 43.6873 90.4611 43.7106C90.2061 43.7691 89.0681 44.3645 88.5571 45.077L88.0471 45.7914C88.0471 45.7914 87.6341 46.3061 87.7721 46.7219C87.9091 47.1367 88.0661 48.5444 88.0661 48.5444L88.2621 50.1086C88.2621 50.1086 88.6351 51.2389 88.5181 51.7334C88.4021 52.2299 88.5771 54.3088 88.5771 54.3088L88.1851 56.8842C88.1851 56.8842 89.5181 56.7055 89.6431 56.8842C89.7671 57.0618 92.4311 56.8842 92.4311 56.8842C92.4311 56.8842 93.4031 56.6652 93.7061 56.8438C93.9041 56.9508 94.1311 56.9921 94.3541 56.9629C94.3541 56.9629 94.1191 56.1455 94.2541 55.6954C94.3911 55.2463 94.3541 54.4067 94.3541 54.4067C94.3541 54.4067 94.5501 53.1987 94.4511 52.9817C94.3521 52.7637 94.6681 51.9716 94.6681 51.9716L95.7081 46.4454C95.7081 46.4454 95.5821 45.4544 95.0261 45.1183C94.4701 44.7813 93.8431 44.6814 93.5101 44.3655C93.1761 44.0506 92.7371 43.7106 92.7371 43.7106Z" fill="#4C4981"/>
<path d="M93.626 49.158V49.812L94.231 51.4569L94.449 52.9807C94.449 52.9807 94.843 54.0706 94.843 54.4531C94.843 54.8356 95.803 56.6521 95.803 56.6521C95.803 56.6521 96.066 57.2666 95.935 57.3837C95.804 57.5018 94.666 60.1185 96.097 60.0388C97.527 59.9611 97.078 57.2273 97.078 57.2273L96.882 56.0385C96.882 56.0385 96.607 53.0665 96.607 52.8495C96.607 52.8495 96.254 51.582 96.215 51.3045C96.176 51.026 95.92 49.6202 95.92 49.6202L95.705 48.71L93.626 49.158Z" fill="#D38884"/>
<path opacity="0.1" d="M92.9381 51.2177L90.8041 52.4499L90.1421 53.4601L91.0251 52.5548L92.9381 51.2177ZM92.2911 53.5781C92.2911 53.5781 91.3191 54.2179 90.8631 54.2179C90.4061 54.2179 89.3461 55.3159 89.3461 55.3159C89.3461 55.3159 90.8481 54.335 90.9661 54.3663C91.0841 54.3966 92.2911 53.5781 92.2911 53.5781ZM89.8031 53.9202C89.8031 53.9202 88.8911 54.7518 89.1261 54.8416C89.3611 54.9324 90.5841 53.9202 90.5841 53.9202H89.8031ZM93.8371 50.9493C93.8371 50.9493 93.1311 51.9161 93.3221 51.9009C93.5121 51.8858 94.0571 51.3358 94.0571 51.3358L93.8371 50.9493ZM93.9391 51.9009C93.9391 51.9009 93.1741 52.7769 93.2031 52.9999C93.2331 53.2219 93.9391 51.9009 93.9391 51.9009ZM94.1321 52.3389C94.1321 52.3389 93.6171 53.2673 93.8371 53.4601C94.0571 53.6538 94.1321 52.3389 94.1321 52.3389ZM93.4641 49.9542C93.4641 49.9542 93.0801 50.6082 93.3611 50.6516C93.6411 50.696 93.6681 50.6516 93.6681 50.6516L93.4641 49.9542ZM93.5711 47.5625C93.4755 47.9622 93.3443 48.3523 93.1791 48.7281C93.1177 48.5363 93.0669 48.3413 93.0271 48.1438C93.1881 47.9319 93.3711 47.7371 93.5711 47.5625ZM94.7401 39.906C94.7019 39.9894 94.6521 40.0669 94.5921 40.1361C94.4921 40.2279 94.4021 40.3309 94.3261 40.4439C94.2661 40.6124 94.2341 40.79 94.2311 40.9687C94.2011 41.1453 94.0911 41.342 93.9071 41.3461C93.816 41.3387 93.7275 41.3122 93.6471 41.2684C93.6071 41.2475 93.5625 41.2373 93.5176 41.2387C93.4726 41.2401 93.4287 41.2531 93.3901 41.2765C93.3389 41.3288 93.3092 41.3987 93.3071 41.4722C93.2847 41.6259 93.276 41.7812 93.2811 41.9364C93.2811 41.999 93.2811 42.0596 93.2911 42.1211C93.3361 42.3169 93.3241 42.5207 93.2571 42.7095C93.1726 42.8463 93.0447 42.9502 92.8941 43.0041C92.7307 43.0723 92.5598 43.1208 92.3851 43.1484C92.0531 43.1888 91.7171 43.1999 91.3831 43.1807C91.3521 43.1815 91.3212 43.1763 91.2921 43.1656C91.2778 43.16 91.2646 43.1518 91.2531 43.1414C91.2901 42.9557 91.3101 42.767 91.3131 42.5773C91.0881 42.357 90.9126 42.0905 90.7985 41.7957C90.6845 41.501 90.6346 41.185 90.6522 40.8691C90.6698 40.5532 90.7545 40.2449 90.9005 39.9649C91.0465 39.6849 91.2505 39.4399 91.4986 39.2465C91.7467 39.0531 92.0331 38.9157 92.3384 38.8438C92.6437 38.7718 92.9608 38.767 93.2681 38.8295C93.5754 38.8921 93.8658 39.0206 94.1196 39.2063C94.3734 39.392 94.5857 39.6307 94.7401 39.906Z" fill="black"/>
<path d="M93.826 38.0371C93.625 38.0169 93.436 38.1238 93.237 38.1682C92.831 38.2591 92.415 38.0714 91.997 38.0734C91.637 38.0936 91.287 38.1995 90.976 38.3812C90.724 38.5013 90.494 38.6637 90.296 38.8615C90.096 39.0634 89.981 39.3328 89.972 39.6164C89.999 39.7799 89.994 39.9464 89.957 40.1068C89.915 40.1876 89.865 40.2653 89.807 40.3359C89.7554 40.4198 89.7225 40.5139 89.7106 40.6118C89.6987 40.7098 89.708 40.8091 89.738 40.9031C89.822 41.0898 89.935 41.2603 90.074 41.4097C90.343 41.7588 90.511 42.1756 90.752 42.545C90.8576 42.7052 90.976 42.8564 91.106 42.9971C91.1271 43.0221 91.153 43.0426 91.182 43.0576C91.21 43.0677 91.241 43.0728 91.271 43.0708C91.783 43.0859 92.312 43.097 92.784 42.8942C92.9349 42.8415 93.0632 42.7377 93.147 42.6005C93.215 42.4118 93.227 42.2069 93.182 42.0121C93.1606 41.7944 93.1657 41.5748 93.197 41.3582C93.199 41.285 93.2287 41.2153 93.28 41.1634C93.3187 41.1394 93.363 41.1259 93.4084 41.1245C93.4538 41.1231 93.4989 41.1337 93.539 41.1554C93.619 41.1977 93.706 41.224 93.796 41.2331C93.973 41.2331 94.085 41.0312 94.12 40.8546C94.1005 40.6958 94.1238 40.5347 94.1875 40.3881C94.2512 40.2416 94.353 40.1151 94.482 40.0221C94.728 39.7072 94.81 39.2925 94.704 38.9059C94.587 38.5376 94.231 38.0784 93.826 38.0381V38.0371Z" fill="#1E1637"/>
<path opacity="0.1" d="M95.9271 47.4263C95.8839 47.697 95.8839 47.973 95.9271 48.2437C95.9071 48.4627 95.9271 49.6707 95.9271 49.6707C95.2791 49.4719 93.6311 49.8685 93.6311 49.8685L93.4351 49.2751C93.3233 49.1286 93.2398 48.9623 93.1891 48.7846C93.1277 48.5925 93.0769 48.3971 93.0371 48.1993C92.9511 47.7886 92.8871 47.3728 92.8441 46.955C92.7611 46.3263 93.6891 45.6471 94.3931 45.2717C95.0961 44.8953 95.7111 46.4999 95.7111 46.4999C95.7111 46.4999 96.0041 47.1155 95.9271 47.4263Z" fill="black"/>
<path d="M95.9271 47.3133C95.884 47.584 95.884 47.86 95.9271 48.1307C95.9071 48.3487 95.9271 49.5567 95.9271 49.5567C95.2791 49.3589 93.6311 49.7545 93.6311 49.7545L93.4351 49.1611C93.3229 49.0148 93.2394 48.8484 93.1891 48.6706C93.1277 48.4792 93.0769 48.2845 93.0371 48.0873C92.9516 47.6762 92.8871 47.2609 92.8441 46.843C92.7611 46.2113 93.6891 45.5351 94.3931 45.1577C95.0961 44.7793 95.7111 46.3849 95.7111 46.3849C95.7111 46.3849 96.0041 46.9964 95.9271 47.3133Z" fill="#4C4981"/>
<path opacity="0.2" d="M94.6802 38.9059C94.6469 38.7936 94.5988 38.6864 94.5372 38.587C94.5472 38.6143 94.5572 38.6405 94.5642 38.6678C94.6712 39.0553 94.5882 39.4701 94.3422 39.7849C94.2135 39.8782 94.1122 40.0048 94.0488 40.1513C93.9855 40.2978 93.9625 40.4589 93.9822 40.6175C93.9542 40.7941 93.8422 40.9878 93.6572 40.9949C93.566 40.9872 93.4775 40.9604 93.3972 40.9162C93.3572 40.8953 93.3126 40.8851 93.2676 40.8865C93.2226 40.8879 93.1788 40.9009 93.1402 40.9243C93.0891 40.977 93.0598 41.0473 93.0582 41.121C93.0267 41.3376 93.0217 41.5572 93.0432 41.775C93.0612 41.9738 93.1002 42.1887 93.0072 42.3653C92.922 42.5009 92.7947 42.6042 92.6452 42.659C92.1732 42.8618 91.6432 42.8507 91.1312 42.8356C91.1009 42.8367 91.0706 42.8319 91.0422 42.8215C91.0125 42.8076 90.9865 42.7868 90.9662 42.7609C90.8351 42.6207 90.7169 42.4687 90.6132 42.3068C90.3722 41.9385 90.2032 41.5227 89.9342 41.1735C89.8612 41.0787 89.7722 40.9848 89.7122 40.8849V40.9051C89.7952 41.0918 89.9082 41.2633 90.0482 41.4117C90.3152 41.7598 90.4852 42.1766 90.7252 42.546C90.8302 42.7074 90.9492 42.8588 91.0802 43.0001C91.1002 43.0243 91.1262 43.0445 91.1542 43.0596C91.1832 43.0697 91.2132 43.0738 91.2442 43.0728C91.7552 43.0879 92.2872 43.099 92.7562 42.8962C92.9073 42.8432 93.0355 42.7391 93.1192 42.6015C93.1872 42.4138 93.1992 42.2089 93.1552 42.0131C93.1352 41.7953 93.1398 41.5759 93.1692 41.3592C93.1727 41.2863 93.2021 41.2171 93.2522 41.1644C93.291 41.1402 93.3354 41.1266 93.3811 41.1252C93.4267 41.1238 93.4719 41.1345 93.5122 41.1564C93.5922 41.1998 93.6792 41.226 93.7692 41.2351C93.9472 41.2351 94.0572 41.0332 94.0932 40.8556C94.0956 40.6766 94.1277 40.4992 94.1882 40.3309C94.2639 40.2179 94.3532 40.1148 94.4542 40.0241C94.5764 39.8688 94.6607 39.6867 94.7001 39.4924C94.7396 39.2981 94.7321 39.0972 94.6802 38.9059Z" fill="black"/>
<path d="M110.474 39.3359L109.074 42.3371C109.074 42.3371 108.869 42.9012 108.736 43.0062C108.603 43.1101 108.016 44.8933 108.016 44.8933L106.513 47.2265L106.411 47.39L105.823 47.2265L105.41 45.6704L105.434 45.2193V45.1617C105.434 45.1617 106.361 44.1808 106.568 44.1072C106.568 44.1072 106.73 44.1274 107.038 43.3675C107.346 42.6065 107.628 42.4431 107.628 42.4431L107.79 41.8941L109.528 39.0997C109.528 39.0997 110.986 36.9926 111.383 37.9281C111.78 38.8626 110.474 39.3359 110.474 39.3359ZM104.662 60.6574C104.657 60.7079 104.641 60.7573 104.615 60.8007C104.453 61.0399 103.541 65.897 103.541 65.897C103.614 66.224 103.408 66.8779 103.275 67.1756C103.142 67.4723 102.847 69.0163 102.847 69.0163C102.847 69.0163 102.774 72.3445 102.585 72.8643C102.395 73.384 102.645 74.4991 102.645 74.4991C102.627 75.0108 102.932 75.5537 103.113 75.8282L103.149 75.8807C103.207 75.9654 103.246 76.0149 103.246 76.0149C103.296 76.1138 103.366 76.2016 103.452 76.2712L103.494 76.3045C103.744 76.473 104.024 76.5921 104.318 76.6557H104.348C104.464 76.6819 104.542 76.693 104.542 76.693L104.615 77.0957L103.835 77.2592L102.348 77.3621C102.348 77.3621 100.596 77.4973 100.994 76.7082C101.022 76.6554 101.045 76.6008 101.065 76.5447C101.081 76.5063 101.095 76.467 101.105 76.4266C101.345 75.6697 101.184 74.7494 101.184 74.7494L100.845 72.062C100.286 69.5653 101.284 66.7881 101.284 66.7881C101.284 66.7881 101.198 66.5661 101.389 66.001C101.58 65.4378 101.389 64.2026 101.389 64.2026C101.389 64.2026 101.287 62.6142 101.154 61.8281C101.102 61.4968 101.084 61.1609 101.101 60.826C101.107 60.6292 101.125 60.4344 101.154 60.2407L104.509 59.7906C104.509 59.7906 104.702 60.3416 104.662 60.6574Z" fill="#FFD2C6"/>
<path opacity="0.1" d="M104.615 77.0987L103.835 77.2622L102.348 77.3651C102.348 77.3651 100.596 77.5013 100.994 76.7112C101.022 76.6584 101.045 76.6038 101.065 76.5477C101.081 76.5093 101.095 76.47 101.105 76.4296C101.41 76.4397 101.71 76.5002 101.994 76.6102C102.493 76.804 102.868 76.2974 102.868 76.2974L103.111 75.8302L103.147 75.7635C103.205 75.8483 103.244 75.8968 103.244 75.8968C103.303 76.0118 103.388 76.111 103.492 76.1864L103.45 76.2732L103.215 76.7737C103.215 76.7737 103.516 76.804 103.928 76.8716C104.008 76.8925 104.092 76.882 104.165 76.8422C104.237 76.8025 104.291 76.7365 104.317 76.6577H104.346C104.462 76.6839 104.54 76.695 104.54 76.695L104.615 77.0987Z" fill="black"/>
<path d="M105.336 77.468C105.277 77.7365 103.636 77.8182 103.636 77.8182C103.636 77.8182 102.723 77.7294 102.466 77.9444C102.211 78.1583 101.457 78.1078 101.428 78.1078C101.399 78.1078 101.002 78.0927 100.847 77.3732C100.691 76.6536 101.049 76.5557 101.065 76.5446C101.383 76.5487 101.697 76.6102 101.994 76.7263C102.493 76.9201 102.868 76.4135 102.868 76.4135L103.147 75.8786C103.205 75.9644 103.244 76.0128 103.244 76.0128C103.303 76.1278 103.388 76.2271 103.492 76.3024L103.215 76.8898C103.215 76.8898 103.516 76.9201 103.928 76.9857C103.981 76.9981 104.036 76.9977 104.089 76.9843C104.142 76.971 104.191 76.9451 104.231 76.9089C104.272 76.8727 104.304 76.8272 104.324 76.7761C104.344 76.725 104.352 76.6699 104.346 76.6153C104.346 76.6153 104.602 76.69 104.919 76.7788C105.062 76.82 105.184 76.9137 105.261 77.0413C105.338 77.169 105.365 77.3213 105.336 77.468Z" fill="#626696"/>
<path d="M108.428 64.1986C108.389 64.4357 108.348 65.0503 108.348 65.0503C108.487 65.565 108.133 66.7881 108.133 66.7881L107.957 67.4854C108.035 68.3765 107.471 70.5563 107.471 70.5563C107.471 70.5563 107.093 72.5766 106.897 73.4486C106.78 73.9326 106.816 74.4414 107 74.9038L107.015 74.9401C107.015 74.9563 107.023 74.9724 107.026 74.9885C107.068 75.1354 107.141 75.2711 107.241 75.3862C107.273 75.4253 107.309 75.4617 107.347 75.4951C107.532 75.6606 107.743 75.7918 107.972 75.8847L108.072 75.924C108.174 75.9624 108.278 75.9947 108.384 76.0219H108.419L108.34 76.4892L107.3 76.2197L105.907 75.7636L105.231 75.3811C105.231 75.3811 105.231 75.3438 105.252 75.2721V75.259C105.252 75.2277 105.265 75.1914 105.273 75.149C105.38 74.5364 105.646 72.8209 105.513 71.5523C105.351 69.9881 105.999 67.8285 106.15 67.3149C106.244 67.0202 106.284 66.7114 106.268 66.4026C106.012 66.0262 105.954 64.5205 105.954 64.5205C105.954 64.5205 105.482 63.5497 105.094 62.5203C104.965 62.1841 104.871 61.835 104.814 61.4789C104.768 61.2281 104.749 60.973 104.757 60.718C104.757 60.718 107.917 57.8065 108.264 60.6251L108.298 60.9016C108.606 63.4922 108.466 63.9665 108.429 64.1976L108.428 64.1986Z" fill="#FFD2C6"/>
<path opacity="0.1" d="M108.428 76.0361L108.348 76.5033L107.308 76.2339L105.916 75.7777L105.23 75.3821C105.23 75.3821 105.23 75.3448 105.251 75.2731V75.26C105.251 75.2287 105.264 75.1924 105.272 75.15H105.37C105.568 75.1298 105.767 75.1581 105.953 75.2307C106.18 75.3155 106.478 75.4124 106.538 75.372C106.643 75.3268 106.757 75.3068 106.871 75.3135L107.016 74.9865L107.038 74.9371C107.082 75.0582 107.148 75.1692 107.231 75.264C107.266 75.3054 107.303 75.3448 107.343 75.3801V75.4931L107.335 75.6566C107.49 75.7575 107.659 75.8352 107.835 75.8887C107.881 75.9003 107.929 75.9003 107.975 75.8887L108.073 75.9291C108.176 75.9664 108.28 75.9997 108.386 76.026L108.428 76.0361Z" fill="black"/>
<path d="M107.907 77.0381C107.617 76.9544 106.917 76.8191 106.803 76.9241C106.69 77.028 105.72 76.9241 105.72 76.9241C105.618 76.9224 105.519 76.8943 105.431 76.8423C105.343 76.7903 105.27 76.7163 105.219 76.6274C105.016 76.3105 105.18 75.2852 105.18 75.2852H105.251L105.371 75.2731C105.569 75.2529 105.769 75.2802 105.954 75.3508C106.181 75.4376 106.479 75.5355 106.539 75.4951C106.644 75.4485 106.758 75.4278 106.873 75.4346L107.035 75.0662C107.079 75.1873 107.145 75.2983 107.228 75.3932C107.262 75.4346 107.3 75.4729 107.34 75.5082L107.325 75.7807C107.481 75.8816 107.649 75.9593 107.825 76.0148C107.868 76.0313 107.915 76.0328 107.958 76.0188C108.002 76.0049 108.04 75.9764 108.065 75.9381C108.073 75.9254 108.079 75.9119 108.083 75.8978C108.214 75.9593 108.353 76.0058 108.495 76.034C108.677 76.0149 108.86 76.0635 109.009 76.1707C109.158 76.2779 109.263 76.4364 109.305 76.6163C109.459 77.0724 108.197 77.1209 107.907 77.0381Z" fill="#626696"/>
<path opacity="0.1" d="M104.662 60.6574L104.482 60.7129C104.341 60.756 104.196 60.7864 104.049 60.8037C103.119 60.9369 101.589 60.8562 101.103 60.8259C101.109 60.6291 101.127 60.4344 101.156 60.2406L104.511 59.7905C104.511 59.7905 104.703 60.3415 104.662 60.6574Z" fill="black"/>
<path d="M107.59 59.8349C107.59 59.8349 106.358 60.0277 105.355 60.2487C105.021 60.3224 104.707 60.4001 104.482 60.4737C104.341 60.5171 104.196 60.5485 104.049 60.5676C102.933 60.7311 100.95 60.5787 100.95 60.5787C100.406 58.7965 101.611 56.5521 101.611 56.5521C101.584 56.3735 101.862 55.8255 101.862 55.8255V55.8084L102.034 55.1726H106.611L106.667 55.4451L106.784 56.0011L107.504 59.4454L107.59 59.8349Z" fill="#626696"/>
<path opacity="0.1" d="M108.299 60.9157L108.271 60.9268L107.735 61.167C107.155 61.4365 105.42 61.494 104.819 61.494C104.773 61.2435 104.754 60.9887 104.762 60.7341C104.762 60.7341 107.922 57.8227 108.269 60.6413C108.276 60.7351 108.287 60.833 108.299 60.9157Z" fill="black"/>
<path d="M108.383 60.6392L108.271 60.6897L107.735 60.9299C107.145 61.2044 105.353 61.2568 104.78 61.2568H104.63C104.365 61.2488 104.1 60.9985 104.1 60.9299C104.1 60.8946 104.072 60.718 104.05 60.5666C104.028 60.4455 104.012 60.3415 104.012 60.3415C103.397 60.0743 102.801 59.7633 102.23 59.4111C101.781 59.1023 101.895 56.9063 101.98 55.8033C102.011 55.4219 102.039 55.1726 102.039 55.1726L106.672 55.4451L107.32 55.4824L107.691 55.5662L107.79 55.5874C107.79 55.5874 108.057 57.5492 108.188 57.7127C108.32 57.8762 108.234 58.4251 108.218 58.739C108.218 58.8742 108.203 59.0084 108.174 59.1396C108.174 59.1396 108.365 59.6896 108.321 59.9974C108.301 60.2124 108.322 60.4314 108.383 60.6392Z" fill="#626696"/>
<path d="M103.422 44.3584C104.471 44.3584 105.321 43.5004 105.321 42.442C105.321 41.3836 104.471 40.5256 103.422 40.5256C102.373 40.5256 101.523 41.3836 101.523 42.442C101.523 43.5004 102.373 44.3584 103.422 44.3584Z" fill="#FFD2C6"/>
<path d="M102.496 43.2393C102.496 43.2393 102.627 45.0537 102.259 45.4715C101.839 45.8954 101.397 46.297 100.934 46.6744L101.229 47.9066L102.893 48.0994L104.837 46.0054L104.394 45.4645C104.394 45.4645 104.056 44.3049 104.334 43.7267C104.614 43.1484 102.496 43.2393 102.496 43.2393Z" fill="#FFD2C6"/>
<path opacity="0.1" d="M106.513 47.2265L106.411 47.39L105.823 47.2265L105.41 45.6704L105.434 45.2193L105.556 45.0427C105.556 45.0427 106.204 45.0578 106.176 45.6522C106.149 46.1729 106.444 47.0287 106.513 47.2265ZM107.793 55.8266C107.793 55.8266 107.325 55.9305 106.789 56.0012C106.253 56.0718 105.634 56.1091 105.379 55.9588C104.953 55.7035 102.645 55.7771 101.977 55.8034H101.864L102.036 55.1676H106.612L106.669 55.4401L107.317 55.4784L107.687 55.5612C107.756 55.7216 107.793 55.8266 107.793 55.8266Z" fill="black"/>
<path d="M105.44 45.1587C105.44 45.1587 106.087 45.1738 106.058 45.7682C106.029 46.3636 106.411 47.3869 106.411 47.3869L106.264 47.729C106.264 47.729 106.058 48.5606 106.22 48.7685C106.382 48.9764 106.97 48.9764 106.632 50.6849C106.632 50.6849 106.559 51.9635 106.735 52.3782C106.912 52.794 106.912 53.789 107.176 54.2058C107.417 54.6499 107.624 55.1121 107.795 55.5884C107.795 55.5884 105.882 56.0173 105.381 55.7216C104.881 55.4259 101.804 55.5732 101.804 55.5732C101.804 55.5732 101.819 55.0525 101.804 54.992C101.79 54.9274 101.789 54.8605 101.802 54.7956C101.814 54.7306 101.84 54.669 101.877 54.6145C101.981 54.4733 102.143 54.2351 102.054 54.0282C101.964 53.8203 102.274 53.5135 102.112 53.1906C101.95 52.8687 101.754 52.8051 101.788 52.6285C101.797 52.5273 101.785 52.4253 101.754 52.3288C101.723 52.2322 101.672 52.143 101.606 52.0664C101.49 51.917 100.694 50.3478 100.694 50.3478L100.561 49.6152C100.561 49.6152 99.5381 48.8583 99.5571 48.502C99.5771 48.1458 99.9441 47.6503 99.9441 47.6503L100.929 46.6694C100.929 46.6694 101.475 47.2628 102.005 47.0549C102.535 46.848 103.674 45.852 103.674 45.852C103.674 45.852 104.08 45.63 104.109 45.4665C104.139 45.303 104.389 45.4513 104.389 45.4513C104.389 45.4513 104.757 45.2475 104.83 45.3191C104.955 45.3847 105.09 45.4302 105.229 45.4513L105.44 45.1587Z" fill="#FFCDE5"/>
<path d="M99.8751 48.2538L99.5621 48.502C99.3244 49.0094 99.1904 49.5599 99.1681 50.1207C99.0852 50.9639 98.9527 51.8013 98.7711 52.6285L98.1531 53.7446C98.1531 53.7446 97.1371 55.8982 97.0041 56.4694C96.8711 57.0426 96.2681 58.0083 96.2681 58.0083C96.2681 58.0083 94.2221 59.8642 95.6501 60.1992C97.0771 60.5343 97.1221 58.7279 97.1221 58.7279C97.1221 58.7279 97.4461 58.3565 97.5091 58.1032C97.5731 57.8509 99.3741 54.6196 99.3741 54.6196C99.3741 54.6196 100.007 53.7497 99.8741 53.2885C99.8741 53.2885 100.699 51.3267 100.699 50.8362C100.684 50.4262 100.639 50.0178 100.566 49.6141L100.699 48.5888L99.8751 48.2538Z" fill="#FFD2C6"/>
<path opacity="0.1" d="M104.114 52.349C104.114 52.349 102.672 53.1109 102.392 53.1513C102.112 53.1916 103.614 52.9878 103.614 52.9878L104.114 52.349ZM105.29 52.9424C105.29 52.9424 103.377 53.5963 102.536 53.4783C102.536 53.4752 104.629 53.8789 105.29 52.9424Z" fill="black"/>
<path opacity="0.1" d="M105.41 53.1563C105.41 53.1563 103.686 54.2503 102.672 54.0717C102.672 54.0717 105.042 54.548 105.41 54.2937L104.35 53.998C104.35 53.998 105.527 53.3693 105.41 53.1563ZM103.426 39.0684C103.178 39.0068 102.919 38.9996 102.667 39.0473C102.416 39.095 102.177 39.1965 101.968 39.3449C101.673 39.5791 101.482 39.9373 101.145 40.1119C100.97 40.1875 100.79 40.2515 100.607 40.3037C100.284 40.4368 100.016 40.6756 99.8436 40.9817C99.6716 41.2877 99.6067 41.6432 99.6591 41.991C99.7111 42.2846 99.8471 42.5561 99.9151 42.8467C100.035 43.3655 99.9281 43.9084 99.7981 44.4251C99.4355 45.8574 98.8854 47.2346 98.1621 48.5203C98.1054 48.6 98.0772 48.6967 98.0821 48.7947C98.1002 48.8605 98.1346 48.9206 98.1821 48.9693C98.8621 49.7625 99.9641 50.036 101.009 50.0713C101.392 50.1097 101.779 50.0451 102.129 49.8836C102.346 49.7575 102.533 49.5849 102.676 49.3791C103.037 48.8797 103.217 48.2698 103.184 47.6524C103.157 47.1538 102.991 46.6503 103.116 46.1679C103.129 46.1004 103.159 46.0377 103.204 45.9862C103.315 45.8702 103.502 45.9015 103.661 45.8813C104.093 45.8308 104.371 45.3717 104.424 44.9347C104.475 44.4987 104.367 44.0598 104.364 43.6268C104.362 43.0469 104.542 42.4811 104.877 42.0101C105.021 41.8103 105.201 41.6146 105.253 41.3643C105.315 41.0514 105.135 40.8193 104.979 40.5731C104.738 40.1876 104.619 39.7375 104.252 39.4428C104.009 39.2551 103.726 39.1262 103.426 39.0684Z" fill="black"/>
<path d="M103.307 38.9493C103.06 38.8885 102.803 38.8817 102.554 38.9294C102.304 38.9771 102.067 39.0782 101.859 39.2258C101.564 39.4609 101.373 39.8192 101.035 39.9948C100.86 40.0686 100.68 40.1316 100.497 40.1835C100.175 40.3166 99.9062 40.5551 99.7343 40.8607C99.5624 41.1663 99.4972 41.5213 99.5492 41.8688C99.6012 42.1615 99.7371 42.4339 99.8051 42.7246C99.9251 43.2423 99.8202 43.7852 99.6882 44.3019C99.3259 45.7315 98.7764 47.106 98.0541 48.389C97.996 48.4681 97.9673 48.5652 97.9731 48.6635C97.9891 48.7301 98.0231 48.7907 98.0721 48.8391C98.7521 49.6333 99.8542 49.9048 100.898 49.9411C101.282 49.9794 101.668 49.9149 102.019 49.7544C102.235 49.6276 102.422 49.4547 102.565 49.2478C102.926 48.7483 103.105 48.1377 103.072 47.5211C103.043 47.0307 102.878 46.519 103.002 46.0377C103.016 45.9707 103.046 45.9082 103.09 45.856C103.204 45.7389 103.388 45.7702 103.549 45.7521C103.979 45.7016 104.259 45.2404 104.31 44.8055C104.362 44.3715 104.253 43.9305 104.252 43.4976C104.25 42.9182 104.429 42.3529 104.765 41.8829C104.908 41.6811 105.089 41.4853 105.141 41.229C105.201 40.9152 105.021 40.6861 104.866 40.4378C104.624 40.0533 104.506 39.6022 104.138 39.3076C103.893 39.1247 103.608 39.002 103.307 38.9493Z" fill="#985C7E"/>
<path opacity="0.1" d="M102.672 57.5229C102.672 57.5229 103.05 59.3071 103.678 59.7905L102.672 57.5229Z" fill="black"/>
<g opacity="0.1">
<path d="M99.6601 42.2705C99.6403 42.2005 99.6183 42.1312 99.5941 42.0626C99.6201 42.1332 99.6351 42.1948 99.6601 42.2705ZM105.031 40.7234C105.038 40.7777 105.038 40.8327 105.031 40.8869C104.982 41.1372 104.799 41.333 104.655 41.5328C104.32 42.004 104.141 42.5696 104.142 43.1495C104.142 43.5895 104.252 44.0274 104.2 44.4574C104.148 44.8873 103.876 45.3535 103.439 45.4019C103.277 45.4221 103.094 45.3918 102.982 45.5069C102.938 45.5589 102.907 45.6214 102.892 45.6885C102.768 46.1709 102.935 46.6694 102.962 47.173C102.992 47.7909 102.811 48.4005 102.447 48.8987C102.305 49.1057 102.118 49.2781 101.901 49.4033C101.551 49.5647 101.165 49.6293 100.781 49.591C99.7601 49.5566 98.6761 49.2902 97.9891 48.5263C97.9709 48.572 97.9654 48.6219 97.9731 48.6706C97.9891 48.7372 98.0231 48.7967 98.0721 48.8452C98.7521 49.6404 99.8541 49.9109 100.898 49.9472C101.282 49.9855 101.668 49.921 102.019 49.7605C102.235 49.6337 102.422 49.4608 102.565 49.2539C102.926 48.7544 103.105 48.1448 103.072 47.5282C103.043 47.0368 102.878 46.5251 103.002 46.0438C103.016 45.9767 103.046 45.9143 103.09 45.8621C103.204 45.746 103.388 45.7763 103.549 45.7592C103.979 45.7087 104.259 45.2475 104.31 44.8126C104.362 44.3776 104.253 43.9376 104.252 43.5047C104.25 42.9253 104.429 42.36 104.765 41.89C104.908 41.6882 105.089 41.4914 105.141 41.2351C105.168 41.0567 105.129 40.8745 105.031 40.7234Z" fill="black"/>
</g>
<path opacity="0.1" d="M20.927 83.6613C22.8203 83.6613 24.355 83.2095 24.355 82.6521C24.355 82.0948 22.8203 81.6429 20.927 81.6429C19.0338 81.6429 17.499 82.0948 17.499 82.6521C17.499 83.2095 19.0338 83.6613 20.927 83.6613Z" fill="#6C63FF"/>
<path d="M22.1262 76.8686C22.1262 76.8686 17.6552 79.1998 19.9652 81.9366C20.0303 82.1072 20.1472 82.2526 20.2991 82.3521C20.4511 82.4516 20.6303 82.5001 20.8112 82.4906C20.8112 82.4906 20.6842 82.2595 21.1652 82.0749C21.3372 82.0083 21.5002 81.9215 21.6512 81.8165C21.8552 81.6752 22.0072 81.4704 22.0842 81.2332C22.0842 81.2332 22.9992 79.999 22.2902 77.7153C22.2902 77.7153 22.3822 77.0613 22.3002 76.9645L21.7582 77.7153C21.7582 77.7153 22.3202 78.0957 22.3852 78.6548C22.3852 78.6548 21.8002 77.7163 21.6722 77.8243C21.6462 77.8455 21.4032 78.235 21.4032 78.235C21.4032 78.235 22.3752 78.901 22.4482 79.7669C22.4482 79.7669 21.9012 78.5559 21.3142 78.3823L20.9812 78.9919C20.9812 78.9919 22.0432 79.6458 22.1632 80.6267C22.1632 80.6267 21.5462 79.3814 20.9162 79.1311L20.6682 79.775C20.6682 79.775 21.6922 80.4289 21.7862 81.2463C21.7862 81.2463 20.9292 79.8799 20.6212 79.9243C20.6212 79.9243 20.4282 80.5288 20.4592 80.7145C20.4592 80.7145 21.1852 81.205 21.1982 81.6843C21.1982 81.6843 20.5282 80.8316 20.4252 80.8881C20.4252 80.8881 20.3832 81.7459 20.5872 82.196C20.3765 81.7937 20.2741 81.3428 20.2902 80.8881C20.0832 81.0729 19.9347 81.315 19.8632 81.5844C19.8632 81.5844 19.6702 81.1121 20.3032 80.6802C20.3032 80.6802 20.3632 80.0142 20.4362 79.9324C20.4362 79.9324 19.7512 80.2685 19.4642 80.6842C19.4642 80.6842 19.5712 80.0656 20.5012 79.7588L20.7382 79.1049C20.7382 79.1049 19.8082 79.5015 19.5192 79.8517C19.5192 79.8517 19.7272 79.2391 20.8152 78.9444L21.1392 78.343C21.1392 78.343 20.3132 78.6245 19.9092 78.9444C19.9092 78.9444 20.2222 78.4166 21.2392 78.1744L21.5012 77.797C21.5012 77.797 20.9002 78.014 20.7332 78.0907C20.5662 78.1684 20.5322 78.1311 20.5322 78.1311C20.8382 77.8687 21.2112 77.6991 21.6082 77.6396C21.6082 77.6396 22.1662 76.909 22.1262 76.8686Z" fill="#00D09C"/>
<path d="M26.5302 81.0172C26.9992 81.2968 27.7312 81.4784 28.6532 80.878L28.6432 82.204C28.7102 83.1153 29.8232 86.4274 29.8232 86.4274L30.6082 89.1541C31.1717 91.0798 31.4629 93.0761 31.4732 95.084C31.4532 95.7157 31.5382 96.3464 31.7242 96.9509C32.1422 98.0953 31.5622 99.5667 31.3062 100.111C30.8807 100.256 30.4481 100.379 30.0102 100.479C29.9707 100.488 29.932 100.5 29.8942 100.514V100.506C29.8942 100.506 28.7142 100.978 28.1902 100.914C27.8002 100.864 27.5552 101.357 27.8662 101.718C27.6112 101.797 27.3462 101.832 27.0802 101.822C26.5552 101.758 26.2942 102.668 27.2762 102.927C28.2582 103.188 33.8302 102.927 33.8302 102.927C33.9872 102.848 34.1136 102.719 34.1897 102.559C34.2657 102.4 34.287 102.219 34.2502 102.046C34.6782 102.03 34.9452 102.017 34.9452 102.017C34.9452 102.017 35.9282 101.563 34.9452 100.329L34.8932 100.369L34.6832 99.7443V98.8996C34.6832 98.8996 35.9282 92.8507 35.5352 92.1443C35.1412 91.4379 34.9452 87.7918 34.9452 87.7918L35.0762 83.8298C35.4312 83.0891 35.6142 81.9295 35.7062 81.0223C35.8402 80.5884 35.9242 80.1423 35.9582 79.6902C35.9722 79.4783 35.9852 79.2532 35.9932 79.0211C35.9984 78.5126 35.9179 78.0069 35.7552 77.5255C36.1982 76.8595 36.6952 76.2288 37.2392 75.6435C37.4655 75.4312 37.6374 75.1667 37.7402 74.8726C37.8429 74.5785 37.8735 74.2637 37.8292 73.9551L37.5052 71.7461L36.7172 67.9859C36.8172 66.9394 36.6012 66.338 36.3612 65.9979C36.4182 65.6618 36.4712 65.3228 36.5112 64.9847C36.6862 63.5113 36.6082 62.0177 36.2812 60.5706C36.1682 60.066 36.0132 59.5473 35.6632 59.1648C35.2642 58.7309 34.6192 58.4665 34.4722 57.8994C34.4497 57.7556 34.4196 57.6131 34.3822 57.4725C34.2372 57.0991 33.7822 56.9659 33.3832 56.9174C32.6732 56.8296 31.6482 56.763 30.9662 57.0446C30.4922 57.2424 29.8322 57.7813 29.5752 58.3616C29.4199 58.6032 29.362 58.8956 29.4132 59.179C29.4382 59.2758 29.4762 59.3687 29.5262 59.4555C29.4212 59.734 29.3662 60.0287 29.3642 60.3264C29.3667 60.8355 29.5211 61.3321 29.8072 61.7514C30.0933 62.1708 30.4978 62.4936 30.9682 62.6777C30.9822 62.7272 30.9982 62.7756 31.0102 62.8251C31.0402 62.9411 31.0602 63.0592 31.0732 63.1783C31.0622 63.4084 31.0472 63.6395 31.0362 63.8675C31.0301 63.8993 31.0221 63.9306 31.0122 63.9614C30.4472 64.2137 29.8972 64.4962 29.3642 64.8091C29.7582 65.3934 29.2992 67.8618 29.2992 67.8618C28.3162 68.4471 27.3332 69.9407 28.3812 71.4998C29.4292 73.057 28.8392 74.7292 28.8392 74.7292L28.6772 77.2692L28.6452 77.7758H28.6582L28.6452 77.9676H28.6722V78.1764C28.2112 78.3399 27.5382 78.6891 27.1382 79.3208C26.9482 79.6337 26.7172 79.9193 26.4512 80.1706C26.3859 80.2234 26.3348 80.2918 26.3022 80.3696C26.2697 80.4474 26.2568 80.5321 26.2647 80.6162C26.2727 80.7002 26.3012 80.781 26.3477 80.8511C26.3942 80.9213 26.4572 80.9787 26.5312 81.0182L26.5302 81.0172ZM34.4442 74.269C34.4051 73.8299 34.486 73.3883 34.6782 72.9924H35.1412C35.1572 73.1014 35.1752 73.2063 35.1982 73.3012C35.3312 73.8794 34.7992 74.1529 34.4442 74.269Z" fill="url(#paint0_linear_22_993)"/>
<path d="M34.574 99.4466L34.827 100.211L34.01 101.038L31.298 101.674L29.343 101.482L29.469 100.783C29.5062 100.632 29.5838 100.496 29.6932 100.387C29.8026 100.278 29.9396 100.202 30.089 100.167C30.899 99.9754 32.426 99.5414 32.749 98.937L34.574 99.4466Z" fill="#DB8B8B"/>
<path opacity="0.1" d="M34.574 99.4466L34.827 100.211L34.01 101.038L31.298 101.674L29.343 101.482L29.469 100.783C29.5062 100.632 29.5838 100.496 29.6932 100.387C29.8026 100.278 29.9396 100.202 30.089 100.167C30.899 99.9754 32.426 99.5414 32.749 98.937L34.574 99.4466Z" fill="black"/>
<path d="M29.97 101.293L30.35 100.783L29.97 100.194C29.97 100.194 28.836 100.656 28.33 100.591C27.825 100.527 27.574 101.421 28.52 101.674C29.466 101.927 34.827 101.674 34.827 101.674C34.827 101.674 35.773 101.23 34.827 100.019L34.01 100.655C34.01 100.655 32.622 101.421 31.929 101.292L29.97 101.293Z" fill="#2E3037"/>
<path d="M28.2671 102.375L30.2231 102.565L32.9351 101.929L33.7551 101.102L33.6881 100.899L33.5941 100.614L33.5041 100.338L31.6741 99.8281C31.5811 99.9804 31.4541 100.111 31.3041 100.204C30.7091 100.613 29.6411 100.909 29.0161 101.057L28.9361 101.08C28.8026 101.125 28.6824 101.203 28.5864 101.306C28.4905 101.41 28.4219 101.536 28.3871 101.674L28.2671 102.375Z" fill="#DB8B8B"/>
<path opacity="0.1" d="M28.2671 102.375L30.2231 102.565L32.9351 101.929L33.7551 101.102L33.6881 100.899L32.9351 101.482C32.9351 101.482 31.5481 102.248 30.8531 102.12H28.8991L29.2771 101.61L28.9371 101.08C28.8034 101.125 28.683 101.202 28.5868 101.306C28.4907 101.41 28.422 101.536 28.3871 101.674L28.2671 102.375Z" fill="black"/>
<path d="M28.9001 102.183L29.2771 101.674L28.8991 101.085C28.8991 101.085 27.7651 101.547 27.2591 101.482C26.7511 101.418 26.5021 102.312 27.4481 102.565C28.3941 102.817 33.7541 102.565 33.7541 102.565C33.7541 102.565 34.7001 102.121 33.7541 100.91L32.9341 101.54C32.9341 101.54 31.5481 102.305 30.8531 102.177L28.9001 102.183Z" fill="#2E3037"/>
<path d="M30.4751 65.2693C30.4751 65.2693 33.5031 65.5862 33.0671 64.3146C32.9441 63.9531 32.9118 63.5666 32.9731 63.1894C33.0531 62.7222 33.2361 62.2802 33.5101 61.8947L30.6711 62.3407C30.8411 62.6283 30.9711 62.9371 31.0551 63.259C31.3871 64.6103 30.4751 65.2693 30.4751 65.2693Z" fill="#DB8B8B"/>
<path d="M35.6461 79.78C35.6461 79.78 35.5831 82.5169 34.9531 83.854L34.8201 87.7353C34.8201 87.7353 35.0101 91.2986 35.3871 92C35.7651 92.7013 34.5671 98.6201 34.5671 98.6201V99.6363C34.5671 99.6363 32.5511 100.402 31.9761 99.5112L32.5521 91.9364L32.3041 81.431L35.6461 79.78Z" fill="#474463"/>
<path opacity="0.1" d="M35.6461 79.78C35.6461 79.78 35.5831 82.5169 34.9531 83.854L34.8201 87.7353C34.8201 87.7353 35.0101 91.2986 35.3871 92C35.7651 92.7013 34.5671 98.6201 34.5671 98.6201V99.6363C34.5671 99.6363 32.5511 100.402 31.9761 99.5112L32.5521 91.9364L32.3041 81.431L35.6461 79.78Z" fill="black"/>
<path d="M36.9081 70.9963L37.2861 72.0145L37.6021 74.1792C37.645 74.4807 37.6159 74.7882 37.5173 75.076C37.4187 75.3639 37.2534 75.6238 37.0351 75.8342C36.2781 76.5971 35.2691 78.1896 35.2691 78.1896L34.0701 74.5647C34.0701 74.5647 35.2691 74.3729 35.0801 73.5454C34.8901 72.7189 34.9531 71.19 34.9531 71.19L36.9081 70.9963Z" fill="#FC6681"/>
<path opacity="0.05" d="M36.9081 70.9963L37.2861 72.0145L37.6021 74.1792C37.645 74.4807 37.6159 74.7882 37.5173 75.076C37.4187 75.3639 37.2534 75.6238 37.0351 75.8342C36.2781 76.5971 35.2691 78.1896 35.2691 78.1896L34.0701 74.5647C34.0701 74.5647 35.2691 74.3729 35.0801 73.5454C34.8901 72.7189 34.9531 71.19 34.9531 71.19L36.9081 70.9963Z" fill="black"/>
<path opacity="0.1" d="M31.303 100.203C32.113 101.489 33.37 100.76 33.593 100.614L33.503 100.338L31.674 99.8281C31.581 99.9804 31.454 100.111 31.304 100.204L31.303 100.203Z" fill="black"/>
<path d="M28.7732 82.2616C28.8362 83.1527 29.9072 86.3992 29.9072 86.3992L30.6632 89.0704C31.2061 90.959 31.4858 92.9147 31.4942 94.8812C31.4782 95.5006 31.5619 96.1185 31.7422 96.7108C32.2482 98.1095 31.2382 100.019 31.2382 100.019C32.1212 101.61 33.6342 100.529 33.6342 100.529V99.5102C33.6342 99.5102 34.8342 93.9739 34.5172 92.8911C34.2012 91.8093 34.0772 88.8807 34.0772 88.8807V83.5987C35.0845 82.5805 35.6959 81.2311 35.8002 79.7962C35.8172 79.5883 35.8282 79.3693 35.8362 79.1423C35.8882 77.7052 34.9142 76.024 34.5402 75.4215C34.4927 75.3452 34.4437 75.2698 34.3932 75.1954L28.8172 77.4267H28.8042V78.126L28.7732 82.2616Z" fill="#474463"/>
<path opacity="0.1" d="M30.665 62.3407C30.835 62.6283 30.964 62.9371 31.049 63.259C31.357 63.3781 31.6855 63.4333 32.0151 63.4213C32.3446 63.4093 32.6684 63.3305 32.967 63.1894C33.047 62.7222 33.229 62.2802 33.503 61.8947L30.665 62.3407Z" fill="black"/>
<path d="M31.9251 63.2954C33.2831 63.2954 34.3841 62.1844 34.3841 60.8139C34.3841 59.4434 33.2831 58.3323 31.9251 58.3323C30.567 58.3323 29.4661 59.4434 29.4661 60.8139C29.4661 62.1844 30.567 63.2954 31.9251 63.2954Z" fill="#DB8B8B"/>
<path opacity="0.1" d="M28.773 78.125H28.799C31.444 78.673 34.764 75.8917 34.764 75.8917C34.6753 75.7399 34.5984 75.5813 34.534 75.4174C34.443 75.2741 34.386 75.1924 34.386 75.1924L28.816 77.4267L28.802 77.6487L28.772 78.126L28.773 78.125Z" fill="black"/>
<path d="M29.4741 65.2057C29.4741 65.2057 33.0061 63.0411 34.1411 63.9322L35.7181 65.9686C35.7181 65.9686 36.727 66.2855 36.538 68.323L37.2941 72.0145L35.0261 72.5877C35.0261 72.5877 33.6861 73.8593 34.7641 75.7091C34.7641 75.7091 31.4221 78.5095 28.7701 77.9373L28.9571 74.9462C28.9571 74.9462 29.5271 73.2911 28.5171 71.7643C27.5071 70.2374 28.4541 68.7721 29.4001 68.1989C29.4031 68.1888 29.8451 65.7769 29.4741 65.2057Z" fill="#FC6681"/>
<path d="M29.2772 78.1896C29.2772 78.1896 27.9532 78.4419 27.3212 79.4611C27.1402 79.7669 26.9182 80.0464 26.6622 80.2937C26.6045 80.3466 26.56 80.4123 26.532 80.4856C26.504 80.559 26.4933 80.6379 26.5009 80.7161C26.5085 80.7943 26.5341 80.8697 26.5756 80.9361C26.6171 81.0026 26.6735 81.0584 26.7402 81.099C27.2402 81.4017 28.0572 81.5894 29.0872 80.7347C30.8532 79.2694 29.2772 78.1896 29.2772 78.1896Z" fill="#DB8B8B"/>
<path opacity="0.1" d="M31.2322 66.4137C31.2322 66.4137 32.4942 66.2855 32.8082 69.5966C33.1232 72.9066 33.6282 73.6706 33.6282 73.6706C33.6282 73.6706 33.9442 75.3892 33.1882 76.4074C32.4312 77.4267 30.9792 79.5883 30.9792 79.5883C30.9792 79.5883 29.4032 80.0354 29.0872 78.4439L31.0422 74.7524C31.0422 74.7524 31.3582 73.4808 30.6022 72.5898C29.8452 71.6987 29.2772 65.7779 31.2322 66.4137Z" fill="black"/>
<path d="M31.1062 66.227C31.1062 66.227 32.3682 66.0998 32.6822 69.4088C32.9962 72.7169 33.5032 73.4828 33.5032 73.4828C33.5032 73.4828 33.8172 75.2004 33.0612 76.2187C32.3042 77.2379 30.8532 79.4006 30.8532 79.4006C30.8532 79.4006 29.2772 79.8466 28.9612 78.2562L30.9162 74.5647C30.9162 74.5647 31.2322 73.2911 30.4762 72.4C29.7192 71.5089 29.1502 65.5861 31.1062 66.227Z" fill="#FC6681"/>
<path opacity="0.1" d="M30.066 68.6086C30.066 68.6086 29.939 70.5825 30.506 71.6643C31.073 72.7472 31.075 74.1469 30.506 74.9108M29.75 66.1906C29.75 66.1906 30.255 65.683 31.705 65.6185C33.155 65.5549 33.787 65.1088 33.787 65.1088" fill="black"/>
<path opacity="0.1" d="M33.259 57.6047C33.641 57.6522 34.079 57.7844 34.218 58.1497C34.254 58.2869 34.283 58.4272 34.305 58.5675C34.448 59.1235 35.068 59.3849 35.45 59.8087C35.789 60.1821 35.936 60.6918 36.047 61.1852C36.361 62.6041 36.436 64.0654 36.269 65.5095C36.145 66.5651 35.894 67.6055 35.823 68.6641C35.752 69.7238 35.881 70.8409 36.456 71.732C36.703 72.1145 37.028 72.4505 37.203 72.8764C36.842 73.1721 36.343 73.2144 35.878 73.2306C35.338 73.2478 34.798 73.2478 34.258 73.2306C33.972 73.2426 33.6876 73.183 33.43 73.057C33.248 72.9402 33.0986 72.7783 32.996 72.5868C32.686 72.0549 32.607 71.4181 32.62 70.8005C32.633 70.1819 32.73 69.5704 32.742 68.9538C32.742 68.6167 32.722 68.2605 32.532 67.986C32.3747 67.8024 32.1969 67.6378 32.002 67.4955C31.328 66.892 31.096 65.9233 31.073 65.014C31.051 64.1057 31.198 63.1925 31.122 62.2852C31.092 61.931 30.96 61.5041 30.615 61.4355C30.5061 61.4295 30.3978 61.4153 30.291 61.3931C30.012 61.2851 30.04 60.8885 29.967 60.5999C29.877 60.2729 29.604 60.0247 29.527 59.6957C29.345 58.9257 30.315 58.0074 30.952 57.7339C31.588 57.4614 32.575 57.52 33.259 57.6047Z" fill="black"/>
<path d="M33.3222 57.4776C33.7042 57.526 34.1422 57.6592 34.2812 58.0225C34.3172 58.1598 34.3472 58.3 34.3682 58.4423C34.5112 58.9974 35.1312 59.2597 35.5142 59.6816C35.8522 60.055 36.0002 60.5636 36.1102 61.0581C36.4242 62.4759 36.4992 63.9382 36.3322 65.3823C36.2092 66.4379 35.9582 67.4773 35.8862 68.537C35.8152 69.5966 35.9452 70.7127 36.5202 71.6048C36.7662 71.9863 37.0922 72.3233 37.2662 72.7482C36.9062 73.0439 36.4062 73.0873 35.9412 73.1034C35.4012 73.1206 34.8592 73.1206 34.3132 73.1034C34.0272 73.1155 33.7427 73.0558 33.4852 72.9299C33.3035 72.813 33.1542 72.6516 33.0512 72.4606C32.7412 71.9278 32.6622 71.29 32.6752 70.6724C32.6882 70.0537 32.7852 69.4432 32.7972 68.8256C32.7972 68.4916 32.7772 68.1333 32.5872 67.8588C32.4295 67.6756 32.2517 67.5111 32.0572 67.3684C31.3832 66.7649 31.1492 65.7971 31.1272 64.8858C31.1042 63.9756 31.2532 63.0653 31.1772 62.1581C31.1472 61.8028 31.0152 61.377 30.6702 61.3073C30.5613 61.3013 30.453 61.2872 30.3462 61.2649C30.0672 61.157 30.0952 60.7614 30.0222 60.4728C29.9322 60.1458 29.6592 59.8975 29.5822 59.5685C29.4002 58.7996 30.3702 57.8792 31.0072 57.6067C31.6432 57.3343 32.6382 57.3988 33.3222 57.4776Z" fill="#472727"/>
<path opacity="0.1" d="M155.705 115.144C157.852 115.144 159.593 114.692 159.593 114.135C159.593 113.578 157.852 113.126 155.705 113.126C153.558 113.126 151.817 113.578 151.817 114.135C151.817 114.692 153.558 115.144 155.705 115.144Z" fill="#4E6F8A"/>
<path opacity="0.1" d="M140.81 116.669C142.957 116.669 144.698 116.217 144.698 115.66C144.698 115.102 142.957 114.651 140.81 114.651C138.663 114.651 136.922 115.102 136.922 115.66C136.922 116.217 138.663 116.669 140.81 116.669Z" fill="#4E6F8A"/>
<path opacity="0.1" d="M123.267 114.606C125.414 114.606 127.155 114.154 127.155 113.597C127.155 113.04 125.414 112.588 123.267 112.588C121.12 112.588 119.379 113.04 119.379 113.597C119.379 114.154 121.12 114.606 123.267 114.606Z" fill="#4E6F8A"/>
<path opacity="0.1" d="M146.772 121.007C148.299 121.007 149.536 120.556 149.536 119.998C149.536 119.441 148.299 118.989 146.772 118.989C145.246 118.989 144.008 119.441 144.008 119.998C144.008 120.556 145.246 121.007 146.772 121.007Z" fill="#4E6F8A"/>
<path opacity="0.1" d="M131.314 120.624C132.841 120.624 134.078 120.172 134.078 119.615C134.078 119.057 132.841 118.606 131.314 118.606C129.788 118.606 128.55 119.057 128.55 119.615C128.55 120.172 129.788 120.624 131.314 120.624Z" fill="#4E6F8A"/>
<path d="M140.728 115.537C140.728 115.537 146.181 97.4979 139.874 90.2723C135.157 84.8672 129.802 85.5131 127.4 86.1852C126.78 86.3523 126.203 86.6534 125.709 87.0678C125.215 87.4821 124.816 87.9998 124.54 88.585C123.702 90.4095 123.852 93.3734 129.772 96.8308C139.682 102.62 140.302 110.564 140.302 110.564L140.728 115.537Z" fill="#00D09C"/>
<path d="M128.257 88.7404C128.257 88.7404 144.332 93.8084 140.731 115.537M137.647 90.5599C137.647 90.5599 135.432 92.0635 136.137 94.32M129.869 91.894C129.869 91.894 131.223 90.5044 132.869 91.2713M136.232 98.8845C136.232 98.8845 138.607 97.6684 139.222 99.1923M142.103 101.421C142.103 101.421 140.321 101.278 140.287 102.14" stroke="#565987" stroke-width="0.5"/>
<path d="M140.948 115.681C140.948 115.681 134.562 102.57 132.808 102.858C131.975 102.993 131.591 103.82 131.416 104.656C131.201 105.73 131.322 106.846 131.764 107.847C132.668 109.941 135.098 113.925 140.948 115.681Z" fill="#00D09C"/>
<path d="M132.855 105.345C132.855 105.345 139.558 115.154 140.855 115.586M132.237 106.877H133.802M134.112 110.467L136.564 110.573M135.604 107.596L135.338 108.885M138.212 111.519L138.165 112.691" stroke="#565987" stroke-width="0.5"/>
<path d="M140.759 115.681C140.759 115.681 147.145 102.57 148.899 102.858C149.733 102.993 150.117 103.82 150.291 104.656C150.506 105.73 150.384 106.846 149.942 107.847C149.03 109.941 146.6 113.925 140.759 115.681Z" fill="#00D09C"/>
<path d="M148.852 105.345C148.852 105.345 142.149 115.154 140.854 115.586M149.468 106.877H147.903M147.593 110.467L145.141 110.573M146.101 107.596L146.367 108.885M143.493 111.519L143.54 112.691" stroke="#565987" stroke-width="0.5"/>
<path d="M129.793 118.743C129.619 118.6 129.492 118.406 129.43 118.189C129.402 118.08 129.411 117.964 129.458 117.861C129.504 117.758 129.584 117.675 129.684 117.625C129.918 117.535 130.17 117.698 130.354 117.864C130.54 118.028 130.76 118.217 131.003 118.183C130.876 118.066 130.781 117.918 130.727 117.753C130.673 117.588 130.662 117.412 130.695 117.242C130.706 117.172 130.736 117.107 130.781 117.052C130.911 116.911 131.145 116.972 131.301 117.083C131.787 117.432 131.931 118.109 131.934 118.718C131.958 118.493 131.958 118.267 131.934 118.043C131.925 117.931 131.943 117.818 131.987 117.714C132.031 117.61 132.099 117.519 132.186 117.448C132.303 117.384 132.435 117.353 132.568 117.357C132.678 117.341 132.79 117.349 132.897 117.38C133.004 117.41 133.103 117.463 133.188 117.535C133.376 117.738 133.328 118.08 133.164 118.304C132.98 118.513 132.76 118.688 132.516 118.821C132.333 118.932 132.176 119.084 132.058 119.262C132.045 119.288 132.033 119.314 132.024 119.341H130.635C130.329 119.181 130.046 118.98 129.793 118.743ZM154.128 113.463C153.954 113.319 153.828 113.126 153.766 112.908C153.738 112.799 153.748 112.684 153.794 112.582C153.839 112.479 153.919 112.396 154.018 112.346C154.252 112.255 154.504 112.418 154.691 112.583C154.877 112.748 155.096 112.936 155.339 112.91C155.212 112.793 155.117 112.645 155.063 112.481C155.009 112.316 154.998 112.14 155.031 111.97C155.042 111.9 155.072 111.835 155.117 111.781C155.247 111.639 155.481 111.7 155.637 111.81C156.123 112.16 156.267 112.836 156.27 113.445C156.294 113.221 156.294 112.995 156.27 112.771C156.261 112.658 156.279 112.545 156.322 112.441C156.366 112.338 156.434 112.246 156.521 112.175C156.638 112.111 156.77 112.08 156.903 112.084C157.013 112.068 157.125 112.076 157.232 112.107C157.339 112.137 157.438 112.191 157.523 112.263C157.712 112.465 157.662 112.808 157.498 113.031C157.314 113.241 157.095 113.416 156.85 113.55C156.667 113.661 156.51 113.811 156.392 113.991C156.379 114.016 156.367 114.042 156.358 114.069H154.969C154.663 113.906 154.38 113.702 154.128 113.463ZM146.019 118.743C145.844 118.6 145.717 118.407 145.654 118.189C145.626 118.079 145.636 117.964 145.682 117.861C145.728 117.758 145.809 117.675 145.909 117.625C146.142 117.535 146.395 117.698 146.581 117.864C146.767 118.028 146.986 118.217 147.229 118.183C147.101 118.066 147.006 117.918 146.952 117.753C146.898 117.589 146.887 117.412 146.921 117.242C146.931 117.171 146.961 117.107 147.007 117.052C147.137 116.911 147.37 116.972 147.525 117.083C148.011 117.432 148.157 118.109 148.159 118.718C148.187 118.494 148.19 118.268 148.169 118.043C148.159 117.931 148.177 117.818 148.22 117.714C148.264 117.611 148.332 117.519 148.418 117.448C148.535 117.384 148.667 117.353 148.8 117.357C148.91 117.341 149.022 117.349 149.129 117.379C149.236 117.41 149.335 117.463 149.42 117.535C149.609 117.738 149.56 118.08 149.396 118.304C149.211 118.513 148.992 118.688 148.748 118.821C148.564 118.932 148.408 119.082 148.29 119.262C148.276 119.287 148.265 119.314 148.256 119.341H146.866C146.558 119.181 146.273 118.98 146.019 118.743ZM123.016 108.069C123.016 108.069 122.495 108.755 123.256 109.795C124.017 110.832 124.646 111.708 124.39 112.356C124.39 112.356 123.241 110.428 122.307 110.394C121.372 110.36 121.986 109.223 123.016 108.069Z" fill="#00D09C"/>
<path opacity="0.1" d="M123.016 108.069C122.97 108.135 122.934 108.208 122.909 108.285C121.997 109.366 121.511 110.376 122.388 110.4C123.206 110.425 124.186 111.9 124.419 112.271C124.413 112.3 124.404 112.328 124.392 112.356C124.392 112.356 123.243 110.428 122.308 110.394C121.374 110.36 121.988 109.223 123.016 108.069Z" fill="black"/>
<path d="M122.048 108.946C122.048 109.188 122.075 109.384 122.108 109.384C122.14 109.384 122.168 109.187 122.168 108.946C122.168 108.704 122.135 108.818 122.101 108.818C122.067 108.818 122.048 108.704 122.048 108.946Z" fill="#FFD037"/>
<path d="M121.715 109.235C121.926 109.35 122.109 109.419 122.125 109.39C122.142 109.361 121.985 109.243 121.774 109.128C121.564 109.01 121.646 109.096 121.63 109.128C121.613 109.158 121.505 109.119 121.715 109.235Z" fill="#FFD037"/>
<path d="M125.769 108.069C125.769 108.069 126.289 108.755 125.527 109.795C124.766 110.832 124.139 111.708 124.393 112.356C124.393 112.356 125.542 110.428 126.478 110.394C127.415 110.36 126.799 109.223 125.769 108.069Z" fill="#00D09C"/>
<path opacity="0.1" d="M125.769 108.069C125.814 108.135 125.849 108.208 125.874 108.285C126.788 109.366 127.274 110.376 126.396 110.4C125.586 110.425 124.599 111.9 124.364 112.271C124.364 112.3 124.382 112.328 124.392 112.356C124.392 112.356 125.54 110.428 126.477 110.394C127.413 110.36 126.797 109.223 125.769 108.069Z" fill="black"/>
<path d="M126.736 108.946C126.736 109.188 126.71 109.384 126.676 109.384C126.642 109.384 126.616 109.187 126.616 108.946C126.616 108.704 126.65 108.818 126.682 108.818C126.715 108.818 126.736 108.704 126.736 108.946Z" fill="#FFD037"/>
<path d="M127.07 109.235C126.859 109.35 126.674 109.419 126.66 109.39C126.645 109.361 126.8 109.243 127.011 109.128C127.221 109.01 127.139 109.096 127.155 109.128C127.172 109.158 127.28 109.119 127.07 109.235Z" fill="#FFD037"/>
<path d="M126.57 112.266C126.57 112.266 125.113 112.221 124.675 111.905C124.238 111.589 122.435 111.213 122.326 111.72C122.218 112.227 120.136 114.236 121.782 114.249C123.428 114.262 125.602 113.991 126.041 113.721C126.48 113.451 126.57 112.266 126.57 112.266Z" fill="#A8A8A8"/>
<path opacity="0.2" d="M121.751 114.072C123.397 114.086 125.573 113.814 126.011 113.545C126.344 113.34 126.478 112.604 126.522 112.264H126.571C126.571 112.264 126.478 113.45 126.041 113.719C125.603 113.989 123.426 114.26 121.781 114.247C121.307 114.247 121.142 114.072 121.151 113.82C121.218 113.975 121.398 114.069 121.751 114.072Z" fill="black"/>
<path opacity="0.1" d="M27.1011 117.338C30.2077 117.338 32.7261 116.886 32.7261 116.329C32.7261 115.772 30.2077 115.32 27.1011 115.32C23.9945 115.32 21.4761 115.772 21.4761 116.329C21.4761 116.886 23.9945 117.338 27.1011 117.338Z" fill="#4E6F8A"/>
<path opacity="0.1" d="M40.72 124.866C43.8266 124.866 46.345 124.415 46.345 123.857C46.345 123.3 43.8266 122.848 40.72 122.848C37.6134 122.848 35.095 123.3 35.095 123.857C35.095 124.415 37.6134 124.866 40.72 124.866Z" fill="#4E6F8A"/>
<path opacity="0.1" d="M100.806 105.249C102.863 105.249 104.53 104.797 104.53 104.24C104.53 103.683 102.863 103.231 100.806 103.231C98.7493 103.231 97.082 103.683 97.082 104.24C97.082 104.797 98.7493 105.249 100.806 105.249Z" fill="#4E6F8A"/>
<path opacity="0.1" d="M83.3961 117.338C85.4528 117.338 87.1201 116.886 87.1201 116.329C87.1201 115.772 85.4528 115.32 83.3961 115.32C81.3394 115.32 79.6721 115.772 79.6721 116.329C79.6721 116.886 81.3394 117.338 83.3961 117.338Z" fill="#4E6F8A"/>
<path opacity="0.1" d="M75.547 124.866C77.6037 124.866 79.271 124.415 79.271 123.857C79.271 123.3 77.6037 122.848 75.547 122.848C73.4903 122.848 71.823 123.3 71.823 123.857C71.823 124.415 73.4903 124.866 75.547 124.866Z" fill="#4E6F8A"/>
<defs>
<linearGradient id="paint0_linear_22_993" x1="606.13" y1="4676.88" x2="606.13" y2="56.1946" gradientUnits="userSpaceOnUse">
<stop stop-color="#808080" stop-opacity="0.25"/>
<stop offset="0.54" stop-color="#808080" stop-opacity="0.12"/>
<stop offset="1" stop-color="#808080" stop-opacity="0.1"/>
</linearGradient>
</defs>
</svg>
